<svg xmlns="http://www.w3.org/2000/svg" fill="none" viewBox="-0.5 -0.5 16 16" id="Phone-Calling--Streamline-Solar" height="16" width="16"><desc>Phone Calling Streamline Icon: https://streamlinehq.com</desc><g id="Line Duotone/Call/Phone Calling"><path id="Vector" fill="#737373" d="m9.7778125 9.714812499999999 0.2846875 -0.2996875 -0.67975 -0.6456249999999999 -0.2846875 0.2996875 0.67975 0.6456249999999999Zm1.2213749999999999 -0.425875 1.1940625 0.6873125 0.4676875 -0.8125 -1.1940625 -0.6873125 -0.4676875 0.8125Zm1.4244999999999999 2.11225 -0.8878750000000001 0.93475 0.67975 0.6456249999999999 0.8878750000000001 -0.93475 -0.67975 -0.6456249999999999Zm-1.4220625 1.23425c-0.8968750000000001 0.08856249999999999 -3.2370624999999995 0.013 -5.77713125 -2.66125l-0.6797375 0.6456249999999999c2.76830625 2.9145624999999997 5.409056249999999 3.061125 6.54893125 2.9486250000000003l-0.09206249999999999 -0.9329999999999999Zm-5.77713125 -2.66125c-2.4225749999999997 -2.5505625 -2.8289375 -4.70195 -2.8795875 -5.6455874999999995l-0.93615 0.050243750000000004c0.06203125 1.15576875 0.55276875 3.5213437499999998 3.136 6.24096875l0.6797375 -0.6456249999999999Zm0.85959375 -4.1481812499999995 0.17922500000000002 -0.188725 -0.6797062500000001 -0.64564375 -0.17926874999999998 0.188725 0.67975 0.64564375Zm0.3200375 -2.53841875L5.61605625 2.17290625l-0.7654937500000001 0.54123125L5.638674999999999 3.8288125l0.76545 -0.541225ZM2.94855625 1.93259375 1.9675624999999999 2.9654000000000003l0.6797375 0.64564375 0.9810000000000001 -1.03280625 -0.6797437500000001 -0.64564375Zm2.79565 3.5705875c-0.33986875 -0.32281875000000004 -0.34029375 -0.3223625 -0.34073125000000004 -0.32190625 -0.00015000000000000001 0.0001625 -0.0005875 0.000625 -0.00088125 0.0009375 -0.00059375 0.0006375 -0.00120625 0.00128125 -0.0018187499999999998 0.00194375 -0.001225 0.001325 -0.0025 0.00270625 -0.0038125000000000004 0.00415 -0.00261875 0.00288125 -0.0054 0.005999999999999999 -0.008325 0.0093625 -0.00584375 0.006725 -0.012268750000000002 0.0144125 -0.0191375 0.023093749999999996 -0.0137375 0.0173625 -0.02928125 0.0387 -0.0455875 0.064175 -0.03269375 0.0511 -0.06815625 0.11839374999999999 -0.0981875 0.20278125000000002 -0.0610625 0.17160625 -0.09434375 0.39885625 -0.0527625 0.6826500000000001 0.08169375 0.55756875 0.44705 1.3073812500000002 1.4016000000000002 2.31238125l0.67975 -0.6456249999999999c-0.89225 -0.9394375 -1.11203125 -1.5179999999999998 -1.15375 -1.80266875 -0.020125 -0.13734375 0.000325 -0.2097125 0.00840625 -0.23243750000000002 0.00454375 -0.012775 0.0075250000000000004 -0.016325 0.00460625 -0.011774999999999999 -0.00140625 0.0022 -0.00421875 0.006337499999999999 -0.008937500000000001 0.012312499999999999 -0.00236875 0.0029875 -0.0052125 0.0064375000000000005 -0.0086125 0.010349999999999998 -0.0017000000000000001 0.00195 -0.00355 0.00401875 -0.00553125 0.00620625 -0.0009875 0.00109375 -0.0020187499999999997 0.0022125 -0.0030875 0.0033625 -0.0005312499999999999 0.000575 -0.00108125 0.0011562500000000002 -0.0016312499999999999 0.00174375 -0.00028125 0.00029375 -0.00070625 0.00074375 -0.0008375 0.0008875 -0.00042500000000000003 0.00045000000000000004 -0.0008562499999999999 0.0009000000000000001 -0.34073125000000004 -0.321925Zm0.83035625 2.9795687500000003c0.9518125 1.0020625 1.670625 1.396 2.2190625 1.4850625000000002 0.2814375 0.0456875 0.50925 0.0091875 0.68175 -0.058812500000000004 0.0843125 -0.03325 0.151 -0.0723125 0.20106249999999998 -0.10781249999999999 0.025 -0.017750000000000002 0.045812500000000006 -0.0345625 0.0625625 -0.049249999999999995 0.0084375 -0.007375 0.0158125 -0.01425 0.02225 -0.0205 0.00325 -0.0030625 0.00625 -0.0060625 0.009 -0.0088125 0.0013750000000000001 -0.0013750000000000001 0.0026875 -0.0027500000000000003 0.0039375 -0.0040625l0.001875 -0.001875c0.0003125 -0.0003125 0.0007499999999999999 -0.0008125 0.000875 -0.0009375 0.0004375 -0.0005 0.000875 -0.0009375 -0.33899999999999997 -0.32375 -0.339875 -0.32281249999999995 -0.3394375 -0.32325 -0.33899999999999997 -0.3236875 0.000125 -0.00018749999999999998 0.0005625 -0.000625 0.0008125 -0.0009375l0.0016875000000000002 -0.0016875000000000002c0.001125 -0.001125 0.0021875 -0.00225 0.0031875000000000002 -0.0033125 0.0021249999999999997 -0.0020625 0.004125 -0.0040625 0.005999999999999999 -0.005875 0.00375 -0.0036249999999999998 0.0071874999999999994 -0.006750000000000001 0.010187499999999999 -0.009375 0.0059375 -0.0052499999999999995 0.010375 -0.008625 0.01325 -0.0106875 0.005875 -0.004125 0.0052499999999999995 -0.0026875 -0.0026875 0.0004375 -0.0120625 0.00475 -0.068875 0.0248125 -0.1874375 0.0055625 -0.251625 -0.040875 -0.7945000000000001 -0.2629375 -1.689625 -1.2053125l-0.67975 0.6456249999999999ZM5.61605625 2.17290625c-0.63349375 -0.8959875 -1.9011375 -1.04715 -2.6675 -0.2403125l0.6797437500000001 0.64564375c0.326775 -0.34403125 0.90204375 -0.31700625000000004 1.2222625 0.1359l0.7654937500000001 -0.54123125ZM2.34490625 4.3286c-0.013393750000000001 -0.2495625 0.095275 -0.4995 0.30239375 -0.71755625L1.9675624999999999 2.9654000000000003c-0.33490625 0.35259375000000004 -0.58945625 0.8423999999999999 -0.5588062500000001 1.4134437499999999l0.93615 -0.050243750000000004ZM11.5358125 12.3359375c-0.174375 0.183625 -0.3568125 0.282 -0.5341875 0.2995l0.09206249999999999 0.9329999999999999c0.4669375 -0.046125 0.8448125 -0.295125 1.121875 -0.5868749999999999l-0.67975 -0.6456249999999999Zm-5.2725 -6.69865625c0.60475 -0.636675 0.6475625 -1.63303125 0.1408125 -2.34969375l-0.76545 0.541225c0.26384375000000004 0.37316875 0.22339375 0.86965625 -0.05506875 1.162825l0.6797062500000001 0.64564375Zm5.929937499999999 4.33896875c0.513 0.2953125 0.6134375000000001 1.02175 0.23043750000000002 1.4249375l0.67975 0.6456249999999999c0.8155625 -0.8586874999999999 0.5780625 -2.2956250000000002 -0.4425 -2.8830625l-0.4676875 0.8125ZM10.0625 9.415125c0.240875 -0.253625 0.61625 -0.310625 0.9366874999999999 -0.1261875l0.4676875 -0.8125c-0.6865625 -0.39518749999999997 -1.5380625 -0.281875 -2.0841250000000002 0.2930625l0.67975 0.6456249999999999Z" stroke-width="1"></path><path id="Vector_2" stroke="#000000" stroke-linecap="round" d="M8.4375 1.25s1.4584375 0.13258125 3.3145625 1.9887374999999998c1.8561874999999999 1.8561562500000002 1.98875 3.3145124999999998 1.98875 3.3145124999999998" stroke-width="1"></path><path id="Vector_3" stroke="#000000" stroke-linecap="round" d="M8.879375 3.459775s0.61875 0.17678125 1.5468125 1.10485625c0.9280625 0.9280812500000001 1.104875 1.5468000000000002 1.104875 1.5468000000000002" stroke-width="1"></path></g></svg>