<?xml version="1.0" encoding="iso-8859-1"?>
<!-- Uploaded to: SVG Repo, www.svgrepo.com, Generator: SVG Repo Mixer Tools -->
<svg version="1.1" id="Layer_1" xmlns="http://www.w3.org/2000/svg" xmlns:xlink="http://www.w3.org/1999/xlink" 
	 viewBox="0 0 393.568 393.568" xml:space="preserve">
<circle style="fill:#6EB1E1;" cx="196.784" cy="196.784" r="196.784"/>
<path style="fill:#FCFCFD;" d="M333.576,223.483h31.677c-11.442,72.857-68.913,130.457-141.705,142.028v-31.935h19.394
	l-46.093-46.093l-46.093,46.093h19.394v32C96.97,354.198,39.24,296.533,27.798,223.483h32.259v19.394l46.093-46.093l-46.093-46.093
	v19.394H27.798C39.24,97.034,97.034,39.37,170.085,27.992v32h-19.394l46.093,46.093l46.093-46.093h-19.394V28.057
	c72.857,11.572,130.327,69.172,141.77,142.028h-31.677v-19.394l-46.158,46.093l46.093,46.093v-19.394H333.576z"/>
<rect x="179.265" y="188.638" style="fill:#F0BA7A;" width="34.327" height="25.147"/>
<circle style="fill:#4F5565;" cx="196.525" cy="149.592" r="38.788"/>
<polygon style="fill:#DEDEDF;" points="174.222,204.929 196.525,205.964 218.828,204.929 213.527,277.463 179.523,277.463 "/>
<polygon style="fill:#F0582F;" points="191.289,221.414 185.018,262.788 196.525,277.463 208.032,262.788 201.762,221.414 "/>
<path style="fill:#4B5AA7;" d="M173.964,204.929c-1.552,0.517-50.554,22.562-50.554,22.562l-11.766,50.036h84.881L173.964,204.929z"
	/>
<polygon style="fill:#257DC0;" points="173.964,204.929 164.267,209.067 149.075,232.145 163.491,236.865 150.691,251.539 
	179.523,277.463 196.525,277.463 "/>
<path style="fill:#4B5AA7;" d="M219.087,204.929c1.552,0.517,50.554,22.562,50.554,22.562l11.766,50.036h-84.881L219.087,204.929z"
	/>
<polygon style="fill:#257DC0;" points="219.087,204.929 228.784,209.067 243.976,232.145 229.56,236.865 242.36,251.539 
	213.527,277.463 196.525,277.463 "/>
<polygon style="fill:#D54232;" points="199.176,206.222 193.875,206.222 185.018,215.143 191.289,221.414 201.762,221.414 
	208.032,215.143 "/>
<g>
	<polygon style="fill:#F1F3F7;" points="174.222,204.929 178.941,196.525 196.525,205.964 183.661,223.224 	"/>
	<polygon style="fill:#F1F3F7;" points="218.828,204.929 214.109,196.525 196.525,205.964 209.39,223.224 	"/>
</g>
<path style="fill:#4F5565;" d="M170.085,148.816c0,0,27.281,1.552,38.788-15.192c0,0,3.426,9.956,12.865,13.64v13.64h4.719
	c0-1.293,0.259-2.651,0.259-3.943c0-21.98-13.382-39.564-29.867-39.564s-29.867,17.842-29.867,39.564c0,1.293,0,2.651,0.259,3.943
	h3.426v-12.024h-0.582V148.816z"/>
<path style="fill:#F7CFA2;" d="M221.673,160.905v-13.64c-9.438-3.943-12.865-13.64-12.865-13.64
	c-11.507,16.743-38.788,15.192-38.788,15.192v12.024h-3.426c1.551,20.17,14.158,35.62,29.867,35.62
	c15.451,0,28.315-15.709,29.867-35.62h-4.655V160.905z"/>
</svg>