<?xml version="1.0" encoding="iso-8859-1"?>
<!-- Uploaded to: SVG Repo, www.svgrepo.com, Generator: SVG Repo Mixer Tools -->
<svg version="1.1" id="Layer_1" xmlns="http://www.w3.org/2000/svg" xmlns:xlink="http://www.w3.org/1999/xlink" 
	 viewBox="0 0 512 512" xml:space="preserve">
<circle style="fill:#F4E3C3;" cx="256" cy="256" r="256"/>
<path style="fill:#FED8B2;" d="M511.883,263.497l-149.72-149.719L249.104,273.813l-99.268,124.409l113.661,113.661
	C398.922,507.987,507.987,398.922,511.883,263.497z"/>
<rect x="149.842" y="118.088" style="fill:#F1543F;" width="212.333" height="275.825"/>
<rect x="255.431" y="118.088" style="fill:#D83E20;" width="106.737" height="275.825"/>
<g>
	<rect x="149.842" y="113.778" style="fill:#FD8469;" width="212.333" height="14.222"/>
	<rect x="149.842" y="384" style="fill:#FD8469;" width="212.333" height="14.222"/>
</g>
<g>
	<rect x="255.431" y="113.778" style="fill:#FC6F58;" width="106.737" height="14.222"/>
	<rect x="255.431" y="384" style="fill:#FC6F58;" width="106.737" height="14.222"/>
</g>
<circle style="fill:#F9B54C;" cx="256" cy="256" r="85.333"/>
<path style="fill:#F4A200;" d="M256,170.667c-0.193,0-0.381,0.014-0.574,0.014v170.637c0.193,0.002,0.381,0.014,0.574,0.014
	c47.128,0,85.333-38.205,85.333-85.333S303.128,170.667,256,170.667z"/>
</svg>