<?xml version="1.0" ?>
<!-- Uploaded to: SVG Repo, www.svgrepo.com, Generator: SVG Repo Mixer Tools -->
<svg width="800px" height="800px" viewBox="0 0 120 120" id="Layer_1" version="1.1" xml:space="preserve" xmlns="http://www.w3.org/2000/svg" xmlns:xlink="http://www.w3.org/1999/xlink">
<style type="text/css">
	.st0{fill:#53BF9D;}
	.st1{fill:#FFC54D;}
	.st2{fill:#F94C66;}
	.st3{fill:#BD4291;}
	.st4{fill:#FFE3B0;}
</style>
<g>
<path class="st0" d="M87.3,75.1c-10.8,0-19.7,7.1-20.7,16.1c-0.1,0.9,0.6,1.7,1.6,1.7h38.3c0.9,0,1.7-0.8,1.6-1.7   C107,82.2,98.1,75.1,87.3,75.1z"/>
<path class="st1" d="M32.7,75.1C21.9,75.1,13,82.2,12,91.2c-0.1,0.9,0.6,1.7,1.6,1.7h38.3c0.9,0,1.7-0.8,1.6-1.7   C52.4,82.2,43.5,75.1,32.7,75.1z"/>
<path class="st2" d="M80.8,31.2c0,2.4-0.8,5.1-1.7,6.5C76,42.3,65.3,52.3,61.4,55.9c-0.8,0.7-2,0.7-2.8,0   C54.7,52.3,44,42.3,40.9,37.7c-0.9-1.4-1.7-4.1-1.7-6.5c0-2.9,1-5.6,2.6-7.8c0.8-1,1.7-1.9,2.7-2.7c2.2-1.6,4.9-2.6,7.8-2.6   s5.6,0.9,7.7,2.6c2.2-1.6,4.8-2.6,7.7-2.6c2.9,0,5.6,1,7.8,2.6c1,0.8,1.9,1.7,2.7,2.7C79.8,25.6,80.8,28.3,80.8,31.2z"/>
<path class="st3" d="M60,84.1c-10.8,0-19.7,7.1-20.7,16.1c-0.1,0.9,0.6,1.7,1.6,1.7h38.3c0.9,0,1.7-0.8,1.6-1.7   C79.7,91.1,70.8,84.1,60,84.1z"/>
<g>
<ellipse class="st4" cx="87.3" cy="64.1" rx="8.5" ry="8.5" transform="matrix(0.9871 -0.1602 0.1602 0.9871 -9.1366 14.8152)"/>
<ellipse class="st4" cx="32.7" cy="64.1" rx="8.5" ry="8.5" transform="matrix(0.3827 -0.9239 0.9239 0.3827 -39.0286 69.7452)"/>
<circle class="st4" cx="60" cy="73" r="8.5"/>
</g>
</g>
</svg>